<svg xmlns="http://www.w3.org/2000/svg" xmlns:xlink="http://www.w3.org/1999/xlink" width="100.402" height="19.999" viewBox="0 0 100.402 19.999">
  <defs>
    <linearGradient id="linear-gradient" x1="1.22" y1="0.067" x2="0.238" y2="1.257" gradientUnits="objectBoundingBox">
      <stop offset="0" stop-color="#eb0823"/>
      <stop offset="1" stop-color="#920111"/>
    </linearGradient>
  </defs>
  <g id="Group_941" data-name="Group 941" transform="translate(-40 -16)">
    <g id="Group_829" data-name="Group 829" transform="translate(-66.414 -142.557)">
      <path id="Union_2" data-name="Union 2" d="M5.594,9.731l3.652-6.36H2.069L0,0H15.248L9.773,9.731,11.57,13l3.448-6.079h4.138L11.57,20ZM17.087,3.4,19.028,0h4.138L21.123,3.4Z" transform="translate(106.414 158.557)" fill="url(#linear-gradient)"/>
    </g>
    <path id="Path_1660" data-name="Path 1660" d="M-65.286-9.074-68.614,0h-2.21l-3.328-9.074h1.95l2.5,7.215,2.483-7.215Zm2.015,1.014a1.109,1.109,0,0,1-.8-.306,1.011,1.011,0,0,1-.318-.76,1.011,1.011,0,0,1,.318-.76,1.109,1.109,0,0,1,.8-.306,1.109,1.109,0,0,1,.8.306,1.011,1.011,0,0,1,.319.76,1.011,1.011,0,0,1-.319.76A1.109,1.109,0,0,1-63.271-8.06Zm.9.858V0h-1.82V-7.2ZM-56.316,0-58.76-3.068V0h-1.82V-9.62h1.82v5.473L-56.342-7.2h2.366l-3.172,3.614L-53.95,0ZM-49-7.306a2.776,2.776,0,0,1,2.08.813,3.111,3.111,0,0,1,.793,2.269V0h-1.82V-3.978a1.867,1.867,0,0,0-.429-1.32,1.519,1.519,0,0,0-1.17-.461,1.557,1.557,0,0,0-1.189.461,1.85,1.85,0,0,0-.436,1.32V0h-1.82V-7.2h1.82v.9a2.514,2.514,0,0,1,.93-.734A2.875,2.875,0,0,1-49-7.306Zm7.254,2.756a4.753,4.753,0,0,1,.6-2.4A4.316,4.316,0,0,1-39.487-8.6a4.685,4.685,0,0,1,2.347-.591,4.616,4.616,0,0,1,2.665.78,4.078,4.078,0,0,1,1.6,2.158H-34.97a2.169,2.169,0,0,0-.877-.975,2.575,2.575,0,0,0-1.307-.325,2.688,2.688,0,0,0-1.41.371,2.528,2.528,0,0,0-.962,1.046,3.45,3.45,0,0,0-.345,1.586,3.46,3.46,0,0,0,.345,1.58,2.52,2.52,0,0,0,.962,1.053,2.688,2.688,0,0,0,1.41.371,2.535,2.535,0,0,0,1.307-.331,2.209,2.209,0,0,0,.877-.982h2.093A4.056,4.056,0,0,1-34.469-.7a4.636,4.636,0,0,1-2.672.774,4.685,4.685,0,0,1-2.347-.592,4.329,4.329,0,0,1-1.651-1.644A4.717,4.717,0,0,1-41.743-4.55ZM-28.119.117a3.793,3.793,0,0,1-1.872-.462A3.323,3.323,0,0,1-31.3-1.651a3.915,3.915,0,0,1-.475-1.95,3.832,3.832,0,0,1,.488-1.95,3.388,3.388,0,0,1,1.333-1.307,3.867,3.867,0,0,1,1.885-.461,3.867,3.867,0,0,1,1.885.461,3.388,3.388,0,0,1,1.333,1.307,3.832,3.832,0,0,1,.488,1.95,3.754,3.754,0,0,1-.5,1.95A3.466,3.466,0,0,1-26.214-.345,3.931,3.931,0,0,1-28.119.117Zm0-1.586a1.893,1.893,0,0,0,.929-.24,1.748,1.748,0,0,0,.7-.721,2.431,2.431,0,0,0,.26-1.17,2.168,2.168,0,0,0-.539-1.58,1.773,1.773,0,0,0-1.319-.552,1.732,1.732,0,0,0-1.306.552,2.2,2.2,0,0,0-.527,1.58,2.236,2.236,0,0,0,.514,1.579A1.691,1.691,0,0,0-28.119-1.469Zm4.628-2.158a4.168,4.168,0,0,1,.435-1.937,3.177,3.177,0,0,1,1.19-1.3,3.183,3.183,0,0,1,1.677-.455,3.059,3.059,0,0,1,1.339.306,2.677,2.677,0,0,1,1.014.813V-9.62h1.846V0h-1.846V-1.066a2.466,2.466,0,0,1-.949.858A2.973,2.973,0,0,1-20.2.117a3.093,3.093,0,0,1-1.664-.468,3.259,3.259,0,0,1-1.19-1.32A4.238,4.238,0,0,1-23.491-3.627Zm5.668.026a2.334,2.334,0,0,0-.26-1.138,1.833,1.833,0,0,0-.7-.728,1.876,1.876,0,0,0-.949-.253,1.843,1.843,0,0,0-.936.247,1.86,1.86,0,0,0-.7.722,2.26,2.26,0,0,0-.267,1.125,2.335,2.335,0,0,0,.267,1.138,1.919,1.919,0,0,0,.7.747,1.783,1.783,0,0,0,.93.26,1.876,1.876,0,0,0,.949-.253,1.833,1.833,0,0,0,.7-.728A2.334,2.334,0,0,0-17.823-3.6Zm10.309-.156a4.3,4.3,0,0,1-.052.7h-5.265a1.791,1.791,0,0,0,.546,1.222,1.684,1.684,0,0,0,1.183.442,1.486,1.486,0,0,0,1.443-.871H-7.7a3.281,3.281,0,0,1-1.2,1.71,3.492,3.492,0,0,1-2.171.67,3.757,3.757,0,0,1-1.866-.462,3.248,3.248,0,0,1-1.287-1.307,4,4,0,0,1-.462-1.95,4.078,4.078,0,0,1,.455-1.963,3.175,3.175,0,0,1,1.274-1.3,3.817,3.817,0,0,1,1.885-.455,3.786,3.786,0,0,1,1.839.442A3.111,3.111,0,0,1-7.962-5.623,3.8,3.8,0,0,1-7.514-3.757ZM-9.4-4.277A1.443,1.443,0,0,0-9.906-5.4a1.8,1.8,0,0,0-1.209-.423,1.652,1.652,0,0,0-1.137.41,1.8,1.8,0,0,0-.566,1.137ZM-3.432.117A3.8,3.8,0,0,1-5.018-.2a2.8,2.8,0,0,1-1.112-.864,2.191,2.191,0,0,1-.449-1.209h1.833a1,1,0,0,0,.41.689,1.424,1.424,0,0,0,.89.273,1.383,1.383,0,0,0,.813-.208.63.63,0,0,0,.292-.533A.562.562,0,0,0-2.7-2.581a6.727,6.727,0,0,0-1.138-.384,9.64,9.64,0,0,1-1.319-.4A2.291,2.291,0,0,1-6.038-4a1.71,1.71,0,0,1-.371-1.157,1.867,1.867,0,0,1,.345-1.092,2.313,2.313,0,0,1,.988-.78,3.7,3.7,0,0,1,1.515-.286,3.092,3.092,0,0,1,2.054.643A2.384,2.384,0,0,1-.663-4.94H-2.4a.943.943,0,0,0-.358-.682,1.329,1.329,0,0,0-.852-.253,1.342,1.342,0,0,0-.76.182.58.58,0,0,0-.266.507.6.6,0,0,0,.364.552,5.652,5.652,0,0,0,1.131.384,9.6,9.6,0,0,1,1.287.4A2.274,2.274,0,0,1-.981-3.2,1.767,1.767,0,0,1-.6-2.054,1.908,1.908,0,0,1-.942-.936a2.269,2.269,0,0,1-.988.774A3.743,3.743,0,0,1-3.432.117Z" transform="translate(141 30)"/>
  </g>
</svg>
